<?xml version="1.0" encoding="UTF-8"?>
<!DOCTYPE svg PUBLIC "-//W3C//DTD SVG 1.1//EN" "http://www.w3.org/Graphics/SVG/1.1/DTD/svg11.dtd">
<svg xmlns="http://www.w3.org/2000/svg" version="1.1" width="512px" height="512px" style="shape-rendering:geometricPrecision; text-rendering:geometricPrecision; image-rendering:optimizeQuality; fill-rule:evenodd; clip-rule:evenodd" xmlns:xlink="http://www.w3.org/1999/xlink">
<g><path style="opacity:0.993" fill="#424242" d="M 153.5,100.5 C 221.501,100.333 289.501,100.5 357.5,101C 404.359,108.193 433.859,134.693 446,180.5C 451.522,236.6 456.356,292.766 460.5,349C 458.297,384.203 439.963,405.536 405.5,413C 378.137,415.732 356.637,405.898 341,383.5C 331.447,361.728 322.447,339.728 314,317.5C 309.967,310.726 304.134,306.226 296.5,304C 269.167,303.333 241.833,303.333 214.5,304C 206.866,306.226 201.033,310.726 197,317.5C 189.333,336.5 181.667,355.5 174,374.5C 156.842,404.322 131.342,415.489 97.5,408C 67.932,397.725 52.2653,376.891 50.5,345.5C 54.7217,295.172 58.8884,244.839 63,194.5C 70.6393,141.362 100.806,110.029 153.5,100.5 Z"/></g>
<g><path style="opacity:1" fill="#747474" d="M 164.5,154.5 C 173.435,152.97 180.269,155.97 185,163.5C 185.5,171.159 185.666,178.826 185.5,186.5C 193.585,186.099 201.585,186.599 209.5,188C 221.091,196.842 221.424,206.176 210.5,216C 208.913,216.862 207.246,217.529 205.5,218C 199.175,218.5 192.842,218.666 186.5,218.5C 186.666,224.842 186.5,231.175 186,237.5C 182.06,248.386 174.56,252.22 163.5,249C 160.333,247.167 157.833,244.667 156,241.5C 154.599,233.585 154.099,225.585 154.5,217.5C 146.826,217.666 139.159,217.5 131.5,217C 121.869,210.201 120.035,201.701 126,191.5C 128.08,189.877 130.246,188.377 132.5,187C 139.826,186.5 147.159,186.334 154.5,186.5C 154.334,179.159 154.5,171.826 155,164.5C 157.022,159.98 160.189,156.647 164.5,154.5 Z"/></g>
<g><path style="opacity:1" fill="#f7bd2d" d="M 335.5,154.5 C 350.51,153.011 357.343,159.678 356,174.5C 352.775,183.031 346.608,186.864 337.5,186C 325.63,181.383 322.13,173.216 327,161.5C 329.441,158.546 332.275,156.213 335.5,154.5 Z"/></g>
<g><path style="opacity:1" fill="#eb524f" d="M 303.5,186.5 C 318.51,185.011 325.343,191.678 324,206.5C 319.263,217.284 311.429,220.451 300.5,216C 289.165,204.852 290.165,195.019 303.5,186.5 Z"/></g>
<g><path style="opacity:1" fill="#42a3f1" d="M 367.5,186.5 C 382.51,185.011 389.343,191.678 388,206.5C 384.775,215.031 378.608,218.864 369.5,218C 358.614,214.06 354.78,206.56 358,195.5C 360.406,191.592 363.572,188.592 367.5,186.5 Z"/></g>
<g><path style="opacity:1" fill="#65b869" d="M 335.5,218.5 C 350.51,217.011 357.343,223.678 356,238.5C 351.263,249.284 343.429,252.451 332.5,248C 321.165,236.852 322.165,227.019 335.5,218.5 Z"/></g>
</svg>
