<?xml version="1.0" encoding="UTF-8"?>
<!DOCTYPE svg PUBLIC "-//W3C//DTD SVG 1.1//EN" "http://www.w3.org/Graphics/SVG/1.1/DTD/svg11.dtd">
<svg xmlns="http://www.w3.org/2000/svg" version="1.1" width="500px" height="500px" style="shape-rendering:geometricPrecision; text-rendering:geometricPrecision; image-rendering:optimizeQuality; fill-rule:evenodd; clip-rule:evenodd" xmlns:xlink="http://www.w3.org/1999/xlink">
<g><path style="opacity:1" fill="#5270fe" d="M 67.5,-0.5 C 161.833,-0.5 256.167,-0.5 350.5,-0.5C 350.5,13.8333 350.5,28.1667 350.5,42.5C 259.596,42.8318 168.763,42.4985 78,41.5C 77,42.1667 76,42.8333 75,43.5C 75.816,97.066 76.316,150.733 76.5,204.5C 76.1667,256.833 75.8333,309.167 75.5,361.5C 61.9285,361.423 48.2618,361.423 34.5,361.5C 34.5,359.167 34.5,356.833 34.5,354.5C 36.1058,355.78 37.1058,355.28 37.5,353C 35.8397,251.438 34.8397,149.938 34.5,48.5C 34.5,45.1667 34.5,41.8333 34.5,38.5C 34.5,37.1667 34.5,35.8333 34.5,34.5C 35.103,31.8156 36.4364,29.4823 38.5,27.5C 39.1556,25.5466 39.4889,23.5466 39.5,21.5C 41.2624,20.7377 42.2624,19.4044 42.5,17.5C 44.8598,16.135 46.5265,14.135 47.5,11.5C 50.117,10.2141 52.4504,8.54745 54.5,6.5C 58.0211,5.90086 61.0211,4.56753 63.5,2.5C 64.9952,2.01131 66.3285,1.34464 67.5,0.5C 67.5,0.166667 67.5,-0.166667 67.5,-0.5 Z"/></g>
<g><path style="opacity:0.231" fill="#eff4ff" d="M 67.5,0.5 C 66.3285,1.34464 64.9952,2.01131 63.5,2.5C 62.8333,2.5 62.1667,2.5 61.5,2.5C 63.1016,0.926057 65.1016,0.25939 67.5,0.5 Z"/></g>
<g><path style="opacity:0.945" fill="#8796e5" d="M 61.5,2.5 C 62.1667,2.5 62.8333,2.5 63.5,2.5C 61.0211,4.56753 58.0211,5.90086 54.5,6.5C 56.3356,4.41203 58.6689,3.0787 61.5,2.5 Z"/></g>
<g><path style="opacity:0.004" fill="#fefffe" d="M 356.5,3.5 C 357.833,4.16667 357.833,4.16667 356.5,3.5 Z"/></g>
<g><path style="opacity:0.588" fill="#becdf5" d="M 54.5,6.5 C 52.4504,8.54745 50.117,10.2141 47.5,11.5C 48.9923,8.67686 51.3257,7.01019 54.5,6.5 Z"/></g>
<g><path style="opacity:0.953" fill="#9faef2" d="M 47.5,11.5 C 46.5265,14.135 44.8598,16.135 42.5,17.5C 43.4194,14.9108 45.086,12.9108 47.5,11.5 Z"/></g>
<g><path style="opacity:0.561" fill="#bbc7f3" d="M 42.5,17.5 C 42.2624,19.4044 41.2624,20.7377 39.5,21.5C 39.7376,19.5956 40.7376,18.2623 42.5,17.5 Z"/></g>
<g><path style="opacity:0.004" fill="#fefffe" d="M 406.5,21.5 C 407.833,22.1667 407.833,22.1667 406.5,21.5 Z"/></g>
<g><path style="opacity:1" fill="#9ca7eb" d="M 39.5,21.5 C 39.4889,23.5466 39.1556,25.5466 38.5,27.5C 36.4364,29.4823 35.103,31.8156 34.5,34.5C 35.1835,29.7821 36.8501,25.4488 39.5,21.5 Z"/></g>
<g><path style="opacity:0.102" fill="#f4feff" d="M 34.5,34.5 C 34.5,35.8333 34.5,37.1667 34.5,38.5C 33.5005,146.665 33.1672,254.999 33.5,363.5C 32.3341,254.667 32.1674,145.667 33,36.5C 33.2784,35.5842 33.7784,34.9175 34.5,34.5 Z"/></g>
<g><path style="opacity:1" fill="#5972ec" d="M 350.5,-0.5 C 350.833,-0.5 351.167,-0.5 351.5,-0.5C 351.5,14.5 351.5,29.5 351.5,44.5C 260.833,44.5 170.167,44.5 79.5,44.5C 169.833,43.8333 260.167,43.1667 350.5,42.5C 350.5,28.1667 350.5,13.8333 350.5,-0.5 Z"/></g>
<g><path style="opacity:0.612" fill="#99a8fc" d="M 351.5,-0.5 C 351.833,-0.5 352.167,-0.5 352.5,-0.5C 352.5,14.8333 352.5,30.1667 352.5,45.5C 261.167,45.5 169.833,45.5 78.5,45.5C 78.5,44.8333 78.8333,44.5 79.5,44.5C 170.167,44.5 260.833,44.5 351.5,44.5C 351.5,29.5 351.5,14.5 351.5,-0.5 Z"/></g>
<g><path style="opacity:0.411" fill="#cbd7ff" d="M 78.5,45.5 C 169.833,45.5 261.167,45.5 352.5,45.5C 261.668,46.4994 170.668,46.8327 79.5,46.5C 79.8328,152.335 79.4995,258.001 78.5,363.5C 78.5,363.167 78.5,362.833 78.5,362.5C 78.5,256.833 78.5,151.167 78.5,45.5 Z"/></g>
<g><path style="opacity:1" fill="#5472f2" d="M 34.5,48.5 C 34.8397,149.938 35.8397,251.438 37.5,353C 37.1058,355.28 36.1058,355.78 34.5,354.5C 34.5,252.5 34.5,150.5 34.5,48.5 Z"/></g>
<g><path style="opacity:0.855" fill="#7990ed" d="M 34.5,38.5 C 34.5,41.8333 34.5,45.1667 34.5,48.5C 34.5,150.5 34.5,252.5 34.5,354.5C 34.5,356.833 34.5,359.167 34.5,361.5C 48.9905,362.496 63.6572,362.829 78.5,362.5C 78.5,362.833 78.5,363.167 78.5,363.5C 63.5,363.5 48.5,363.5 33.5,363.5C 33.1672,254.999 33.5005,146.665 34.5,38.5 Z"/></g>
<g><path style="opacity:0.004" fill="#fefffe" d="M 447.5,53.5 C 448.833,54.1667 448.833,54.1667 447.5,53.5 Z"/></g>
<g><path style="opacity:0.004" fill="#fefffe" d="M 463.5,54.5 C 464.833,55.1667 464.833,55.1667 463.5,54.5 Z"/></g>
<g><path style="opacity:0.004" fill="#fefffe" d="M 282.5,64.5 C 283.833,65.1667 283.833,65.1667 282.5,64.5 Z"/></g>
<g><path style="opacity:0.004" fill="#fefffe" d="M 384.5,65.5 C 385.833,66.1667 385.833,66.1667 384.5,65.5 Z"/></g>
<g><path style="opacity:0.004" fill="#fefffe" d="M 163.5,67.5 C 164.833,68.1667 164.833,68.1667 163.5,67.5 Z"/></g>
<g><path style="opacity:0.004" fill="#fefffe" d="M 30.5,73.5 C 31.8333,74.1667 31.8333,74.1667 30.5,73.5 Z"/></g>
<g><path style="opacity:0.004" fill="#fefffe" d="M 213.5,76.5 C 214.833,77.1667 214.833,77.1667 213.5,76.5 Z"/></g>
<g><path style="opacity:0.004" fill="#fefffe" d="M 475.5,77.5 C 476.833,78.1667 476.833,78.1667 475.5,77.5 Z"/></g>
<g><path style="opacity:0.004" fill="#fefffe" d="M 315.5,84.5 C 316.833,85.1667 316.833,85.1667 315.5,84.5 Z"/></g>
<g><path style="opacity:0.906" fill="#8796e5" d="M 432.5,91.5 C 340.833,91.5 249.167,91.5 157.5,91.5C 159.631,90.6862 161.964,90.1862 164.5,90C 251.5,89.3333 338.5,89.3333 425.5,90C 428.036,90.1862 430.369,90.6862 432.5,91.5 Z"/></g>
<g><path style="opacity:1" fill="#5674f3" d="M 157.5,91.5 C 249.167,91.5 340.833,91.5 432.5,91.5C 433.492,91.3284 434.158,91.6618 434.5,92.5C 435.93,93.5375 437.597,94.2041 439.5,94.5C 440.167,95.1667 440.833,95.8333 441.5,96.5C 438.86,96.4467 436.36,95.78 434,94.5C 432.774,94.6448 431.607,94.9781 430.5,95.5C 430.264,94.7528 429.93,93.9195 429.5,93C 384.333,92.8333 339.167,92.6667 294,92.5C 246.775,92.5296 199.608,93.1963 152.5,94.5C 152.5,94.1667 152.5,93.8333 152.5,93.5C 154.698,93.8799 156.365,93.2132 157.5,91.5 Z"/></g>
<g><path style="opacity:0.875" fill="#a4b4e8" d="M 157.5,91.5 C 156.365,93.2132 154.698,93.8799 152.5,93.5C 153.93,92.4625 155.597,91.7959 157.5,91.5 Z"/></g>
<g><path style="opacity:0.008" fill="#e6eefe" d="M 434.5,92.5 C 436.698,92.1201 438.365,92.7868 439.5,94.5C 437.597,94.2041 435.93,93.5375 434.5,92.5 Z"/></g>
<g><path style="opacity:1" fill="#5271fe" d="M 441.5,96.5 C 441.833,96.5 442.167,96.5 442.5,96.5C 445.169,100.092 448.502,103.092 452.5,105.5C 453.833,106.5 455.167,107.5 456.5,108.5C 456.427,110.027 457.094,111.027 458.5,111.5C 458.427,113.027 459.094,114.027 460.5,114.5C 460.54,117.881 460.207,121.214 459.5,124.5C 460.5,124.5 461.5,124.5 462.5,124.5C 463.639,234.16 463.806,343.826 463,453.5C 463.164,461.375 461.331,468.709 457.5,475.5C 456.186,474.687 455.019,473.687 454,472.5C 453.504,474.035 453.67,475.535 454.5,477C 454.241,478.261 453.574,479.261 452.5,480C 453.634,481.016 453.301,481.683 451.5,482C 452.252,482.671 452.586,483.504 452.5,484.5C 451.89,485.391 451.557,486.391 451.5,487.5C 451.158,488.338 450.492,488.672 449.5,488.5C 447.246,489.124 445.579,490.457 444.5,492.5C 441.61,492.722 438.943,492.055 436.5,490.5C 434.009,490.909 432.009,492.076 430.5,494C 431.5,494.333 432.5,494.667 433.5,495C 430.091,496.74 426.424,497.74 422.5,498C 421.944,498.383 421.611,498.883 421.5,499.5C 335.5,499.5 249.5,499.5 163.5,499.5C 163.5,498.5 163.5,497.5 163.5,496.5C 159.454,495.987 155.454,495.154 151.5,494C 152.624,493.751 153.624,493.251 154.5,492.5C 154,492.167 153.5,491.833 153,491.5C 151.234,492.233 149.401,492.567 147.5,492.5C 146.833,492.5 146.167,492.5 145.5,492.5C 145.027,491.094 144.027,490.427 142.5,490.5C 142.027,489.094 141.027,488.427 139.5,488.5C 138.833,485.833 137.167,484.167 134.5,483.5C 133.662,483.158 133.328,482.492 133.5,481.5C 133.446,479.368 132.446,478.035 130.5,477.5C 128.992,475.819 127.992,473.819 127.5,471.5C 127.5,470.167 127.5,468.833 127.5,467.5C 126.175,353.853 126.175,240.186 127.5,126.5C 128.876,125.158 130.209,123.825 131.5,122.5C 130.48,120.568 130.313,118.568 131,116.5C 132.168,113.814 133.335,111.147 134.5,108.5C 134.557,107.391 134.89,106.391 135.5,105.5C 136.5,105.167 137.167,104.5 137.5,103.5C 140.112,102.221 142.445,100.555 144.5,98.5C 147.442,97.6955 150.109,96.3622 152.5,94.5C 199.608,93.1963 246.775,92.5296 294,92.5C 339.167,92.6667 384.333,92.8333 429.5,93C 429.93,93.9195 430.264,94.7528 430.5,95.5C 431.607,94.9781 432.774,94.6448 434,94.5C 436.36,95.78 438.86,96.4467 441.5,96.5 Z M 171.5,136.5 C 254.167,136.5 336.833,136.5 419.5,136.5C 419.5,241.833 419.5,347.167 419.5,452.5C 336.833,452.5 254.167,452.5 171.5,452.5C 171.541,347.31 171.541,241.977 171.5,136.5 Z"/></g>
<g><path style="opacity:0.161" fill="#e0ebff" d="M 439.5,94.5 C 441.38,94.2291 442.713,94.8958 443.5,96.5C 443.167,96.5 442.833,96.5 442.5,96.5C 442.167,96.5 441.833,96.5 441.5,96.5C 440.833,95.8333 440.167,95.1667 439.5,94.5 Z"/></g>
<g><path style="opacity:0.992" fill="#8c97e9" d="M 152.5,93.5 C 152.5,93.8333 152.5,94.1667 152.5,94.5C 150.109,96.3622 147.442,97.6955 144.5,98.5C 144.5,98.1667 144.5,97.8333 144.5,97.5C 146.849,95.659 149.515,94.3257 152.5,93.5 Z"/></g>
<g><path style="opacity:0.039" fill="#d9ecff" d="M 447.5,99.5 C 449.027,99.427 450.027,100.094 450.5,101.5C 448.973,101.573 447.973,100.906 447.5,99.5 Z"/></g>
<g><path style="opacity:0.62" fill="#c8d3f9" d="M 144.5,97.5 C 144.5,97.8333 144.5,98.1667 144.5,98.5C 142.445,100.555 140.112,102.221 137.5,103.5C 139.193,100.81 141.527,98.8103 144.5,97.5 Z"/></g>
<g><path style="opacity:1" fill="#8690e9" d="M 442.5,96.5 C 442.833,96.5 443.167,96.5 443.5,96.5C 445.404,96.7376 446.738,97.7376 447.5,99.5C 447.973,100.906 448.973,101.573 450.5,101.5C 451.5,101.833 452.167,102.5 452.5,103.5C 452.5,104.167 452.5,104.833 452.5,105.5C 448.502,103.092 445.169,100.092 442.5,96.5 Z"/></g>
<g><path style="opacity:0.122" fill="#e5f1ff" d="M 137.5,103.5 C 137.167,104.5 136.5,105.167 135.5,105.5C 135.5,104.167 136.167,103.5 137.5,103.5 Z"/></g>
<g><path style="opacity:0.565" fill="#c6d3f9" d="M 452.5,103.5 C 454.587,104.585 455.92,106.251 456.5,108.5C 455.167,107.5 453.833,106.5 452.5,105.5C 452.5,104.833 452.5,104.167 452.5,103.5 Z"/></g>
<g><path style="opacity:0.275" fill="#e2eaff" d="M 135.5,105.5 C 134.89,106.391 134.557,107.391 134.5,108.5C 133.833,108.833 133.167,109.167 132.5,109.5C 132.554,107.368 133.554,106.035 135.5,105.5 Z"/></g>
<g><path style="opacity:0.6" fill="#aab3eb" d="M 456.5,108.5 C 457.906,108.973 458.573,109.973 458.5,111.5C 457.094,111.027 456.427,110.027 456.5,108.5 Z"/></g>
<g><path style="opacity:0.349" fill="#d8e4fe" d="M 458.5,111.5 C 459.906,111.973 460.573,112.973 460.5,114.5C 459.094,114.027 458.427,113.027 458.5,111.5 Z"/></g>
<g><path style="opacity:0.871" fill="#a8b9f0" d="M 461.5,116.5 C 462.537,117.93 463.204,119.597 463.5,121.5C 461.787,120.365 461.12,118.698 461.5,116.5 Z"/></g>
<g><path style="opacity:0.749" fill="#bcc6f7" d="M 131.5,111.5 C 128.515,117.122 126.515,123.122 125.5,129.5C 125.167,129.5 124.833,129.5 124.5,129.5C 124.704,122.463 127.037,116.463 131.5,111.5 Z"/></g>
<g><path style="opacity:0.106" fill="#f4fdfe" d="M 464.5,125.5 C 465.29,126.609 465.79,127.942 466,129.5C 466.667,240.167 466.667,350.833 466,461.5C 465.302,464.004 464.469,466.337 463.5,468.5C 463.421,465.729 463.921,463.063 465,460.5C 465.823,348.816 465.656,237.149 464.5,125.5 Z"/></g>
<g><path style="opacity:1" fill="#5673ee" d="M 134.5,108.5 C 133.335,111.147 132.168,113.814 131,116.5C 130.313,118.568 130.48,120.568 131.5,122.5C 130.209,123.825 128.876,125.158 127.5,126.5C 126.175,240.186 126.175,353.853 127.5,467.5C 126.833,466.833 126.167,466.167 125.5,465.5C 125.5,353.5 125.5,241.5 125.5,129.5C 126.515,123.122 128.515,117.122 131.5,111.5C 131.328,110.508 131.662,109.842 132.5,109.5C 133.167,109.167 133.833,108.833 134.5,108.5 Z"/></g>
<g><path style="opacity:0.388" fill="#adbdfb" d="M 420.5,135.5 C 420.5,241.5 420.5,347.5 420.5,453.5C 337.167,454.833 253.833,454.833 170.5,453.5C 169.501,347.668 169.167,241.668 169.5,135.5C 253.167,135.5 336.833,135.5 420.5,135.5 Z M 171.5,136.5 C 254.167,136.5 336.833,136.5 419.5,136.5C 419.5,241.833 419.5,347.167 419.5,452.5C 336.833,452.5 254.167,452.5 171.5,452.5C 171.541,347.31 171.541,241.977 171.5,136.5 Z"/></g>
<g><path style="opacity:1" fill="#667cf3" d="M 460.5,114.5 C 461.338,114.842 461.672,115.508 461.5,116.5C 461.12,118.698 461.787,120.365 463.5,121.5C 464.434,122.568 464.768,123.901 464.5,125.5C 465.656,237.149 465.823,348.816 465,460.5C 463.921,463.063 463.421,465.729 463.5,468.5C 462.099,473.402 459.765,477.735 456.5,481.5C 455.167,482.5 453.833,483.5 452.5,484.5C 452.586,483.504 452.252,482.671 451.5,482C 453.301,481.683 453.634,481.016 452.5,480C 453.574,479.261 454.241,478.261 454.5,477C 453.67,475.535 453.504,474.035 454,472.5C 455.019,473.687 456.186,474.687 457.5,475.5C 461.331,468.709 463.164,461.375 463,453.5C 463.806,343.826 463.639,234.16 462.5,124.5C 461.5,124.5 460.5,124.5 459.5,124.5C 460.207,121.214 460.54,117.881 460.5,114.5 Z"/></g>
<g><path style="opacity:0.977" fill="#6477cc" d="M 124.5,129.5 C 124.833,129.5 125.167,129.5 125.5,129.5C 125.5,241.5 125.5,353.5 125.5,465.5C 124.83,355.14 124.164,244.64 123.5,134C 124.148,132.56 124.481,131.06 124.5,129.5 Z"/></g>
<g><path style="opacity:1" fill="#5771f0" d="M 350.5,42.5 C 260.167,43.1667 169.833,43.8333 79.5,44.5C 78.8333,44.5 78.5,44.8333 78.5,45.5C 78.5,151.167 78.5,256.833 78.5,362.5C 63.6572,362.829 48.9905,362.496 34.5,361.5C 48.2618,361.423 61.9285,361.423 75.5,361.5C 75.8333,309.167 76.1667,256.833 76.5,204.5C 76.316,150.733 75.816,97.066 75,43.5C 76,42.8333 77,42.1667 78,41.5C 168.763,42.4985 259.596,42.8318 350.5,42.5 Z"/></g>
<g><path style="opacity:0.004" fill="#fefffe" d="M 121.5,187.5 C 122.833,188.167 122.833,188.167 121.5,187.5 Z"/></g>
<g><path style="opacity:1" fill="#5772ed" d="M 420.5,135.5 C 422.332,239.495 423.165,343.829 423,448.5C 424.156,447.007 424.99,447.174 425.5,449C 424.763,451.799 423.93,451.966 423,449.5C 422.878,451.437 422.045,452.77 420.5,453.5C 420.5,347.5 420.5,241.5 420.5,135.5 Z"/></g>
<g><path style="opacity:0.004" fill="#fefffe" d="M 495.5,302.5 C 496.833,303.167 496.833,303.167 495.5,302.5 Z"/></g>
<g><path style="opacity:0.004" fill="#fefffe" d="M 491.5,323.5 C 492.833,324.167 492.833,324.167 491.5,323.5 Z"/></g>
<g><path style="opacity:0.004" fill="#fefffe" d="M 101.5,357.5 C 102.833,358.167 102.833,358.167 101.5,357.5 Z"/></g>
<g><path style="opacity:0.004" fill="#feff00" d="M 482.5,383.5 C 483.833,384.167 483.833,384.167 482.5,383.5 Z"/></g>
<g><path style="opacity:0.004" fill="#fefffe" d="M 475.5,386.5 C 476.833,387.167 476.833,387.167 475.5,386.5 Z"/></g>
<g><path style="opacity:0.004" fill="#fefffe" d="M 98.5,405.5 C 99.8333,406.167 99.8333,406.167 98.5,405.5 Z"/></g>
<g><path style="opacity:0.004" fill="#fefffe" d="M 6.5,408.5 C 7.83333,409.167 7.83333,409.167 6.5,408.5 Z"/></g>
<g><path style="opacity:0.004" fill="#fefffe" d="M 95.5,441.5 C 96.8333,442.167 96.8333,442.167 95.5,441.5 Z"/></g>
<g><path style="opacity:0.004" fill="#fefffe" d="M 487.5,442.5 C 488.833,443.167 488.833,443.167 487.5,442.5 Z"/></g>
<g><path style="opacity:0.02" fill="#fefffe" d="M 171.5,136.5 C 171.541,241.977 171.541,347.31 171.5,452.5C 254.167,452.5 336.833,452.5 419.5,452.5C 336.668,453.499 253.668,453.833 170.5,453.5C 170.167,347.665 170.501,241.999 171.5,136.5 Z"/></g>
<g><path style="opacity:0.004" fill="#fefffe" d="M 74.5,463.5 C 75.8333,464.167 75.8333,464.167 74.5,463.5 Z"/></g>
<g><path style="opacity:0.016" fill="#edf2fe" d="M 125.5,465.5 C 126.167,466.167 126.833,466.833 127.5,467.5C 127.5,468.833 127.5,470.167 127.5,471.5C 125.926,469.898 125.259,467.898 125.5,465.5 Z"/></g>
<g><path style="opacity:0.004" fill="#fefffe" d="M 96.5,477.5 C 97.8333,478.167 97.8333,478.167 96.5,477.5 Z"/></g>
<g><path style="opacity:0.004" fill="#fefffe" d="M 110.5,477.5 C 111.833,478.167 111.833,478.167 110.5,477.5 Z"/></g>
<g><path style="opacity:0.812" fill="#b6c2f6" d="M 130.5,477.5 C 132.446,478.035 133.446,479.368 133.5,481.5C 132.026,480.564 131.026,479.23 130.5,477.5 Z"/></g>
<g><path style="opacity:0.624" fill="#bfcef8" d="M 134.5,483.5 C 137.167,484.167 138.833,485.833 139.5,488.5C 137.5,487.167 135.833,485.5 134.5,483.5 Z"/></g>
<g><path style="opacity:0.067" fill="#dbe2fa" d="M 456.5,481.5 C 455.581,484.089 453.914,486.089 451.5,487.5C 451.557,486.391 451.89,485.391 452.5,484.5C 453.833,483.5 455.167,482.5 456.5,481.5 Z"/></g>
<g><path style="opacity:0.388" fill="#c4cdf4" d="M 139.5,488.5 C 141.027,488.427 142.027,489.094 142.5,490.5C 140.973,490.573 139.973,489.906 139.5,488.5 Z"/></g>
<g><path style="opacity:1" fill="#7687f7" d="M 444.5,492.5 C 442.421,494.873 439.754,496.206 436.5,496.5C 434.447,496.402 432.78,497.069 431.5,498.5C 430.833,498.5 430.5,498.833 430.5,499.5C 427.5,499.5 424.5,499.5 421.5,499.5C 421.611,498.883 421.944,498.383 422.5,498C 426.424,497.74 430.091,496.74 433.5,495C 432.5,494.667 431.5,494.333 430.5,494C 432.009,492.076 434.009,490.909 436.5,490.5C 438.943,492.055 441.61,492.722 444.5,492.5 Z"/></g>
<g><path style="opacity:0.459" fill="#ccdaff" d="M 142.5,490.5 C 144.027,490.427 145.027,491.094 145.5,492.5C 143.973,492.573 142.973,491.906 142.5,490.5 Z"/></g>
<g><path style="opacity:0.027" fill="#d8ebfe" d="M 449.5,488.5 C 448.461,490.531 446.795,491.864 444.5,492.5C 445.579,490.457 447.246,489.124 449.5,488.5 Z"/></g>
<g><path style="opacity:0.004" fill="#fefffe" d="M 48.5,493.5 C 49.8333,494.167 49.8333,494.167 48.5,493.5 Z"/></g>
<g><path style="opacity:0.376" fill="#bbc4f8" d="M 145.5,492.5 C 146.167,492.5 146.833,492.5 147.5,492.5C 147.833,493.167 148.167,493.833 148.5,494.5C 146.973,494.573 145.973,493.906 145.5,492.5 Z"/></g>
<g><path style="opacity:0.047" fill="#deebff" d="M 148.5,494.5 C 150.153,494.66 151.486,495.326 152.5,496.5C 150.62,496.771 149.287,496.104 148.5,494.5 Z"/></g>
<g><path style="opacity:1" fill="#6e7fea" d="M 163.5,499.5 C 161.833,499.5 160.167,499.5 158.5,499.5C 158.5,499.167 158.5,498.833 158.5,498.5C 156.786,497.262 154.786,496.595 152.5,496.5C 151.486,495.326 150.153,494.66 148.5,494.5C 148.167,493.833 147.833,493.167 147.5,492.5C 149.401,492.567 151.234,492.233 153,491.5C 153.5,491.833 154,492.167 154.5,492.5C 153.624,493.251 152.624,493.751 151.5,494C 155.454,495.154 159.454,495.987 163.5,496.5C 163.5,497.5 163.5,498.5 163.5,499.5 Z"/></g>
<g><path style="opacity:0.02" fill="#f0f7ff" d="M 152.5,496.5 C 154.786,496.595 156.786,497.262 158.5,498.5C 156.102,498.741 154.102,498.074 152.5,496.5 Z"/></g>
<g><path style="opacity:0.014" fill="#ecf4ff" d="M 436.5,496.5 C 435.365,498.213 433.698,498.88 431.5,498.5C 432.78,497.069 434.447,496.402 436.5,496.5 Z"/></g>
</svg>
